# xmcd CD database file
#
# Track frame offsets:
#	150
#	30889
#	46161
#	77191
#	108493
#	134215
#	161521
#	192951
#	216375
#	237256
#	259520
#
# Disc length: 4085 seconds
#
# Revision: 0
# Processed by: cddbd v1.4PL0 Copyright (c) Steve Scherf et al.
# Submitted via: CDex 1.50beta9
#
DISCID=940ff30b
DTITLE=The New Birth Brass Band - Cell Block 0009
DYEAR=1900
DGENRE=Jazz
TTITLE0=Caribean second line
TTITLE1=Saint James infirmiry
TTITLE2=Cell block 0009
TTITLE3=Money back
TTITLE4=Fly away
TTITLE5=Crack house
TTITLE6=Here we go
TTITLE7=50/50 love
TTITLE8=Apple tree
TTITLE9=Who dat called da po'lice
TTITLE10=Cell block IX (street raw)
EXTD=
EXTT0=
EXTT1=
EXTT2=
EXTT3=
EXTT4=
EXTT5=
EXTT6=
EXTT7=
EXTT8=
EXTT9=
EXTT10=
PLAYORDER=
